<svg height="128" viewBox="0 0 128 128" width="128" xmlns="http://www.w3.org/2000/svg"><path d="M107 30c3.3 0 6 2.7 6 6v56c0 3.3-2.7 6-6 6H21c-3.3 0-6-2.7-6-6V36c0-3.3 2.7-6 6-6h86m0-4H21c-5.5 0-10 4.5-10 10v56c0 5.5 4.5 10 10 10h86c5.5 0 10-4.5 10-10V36c0-5.5-4.5-10-10-10z" fill="#b1b1b1"/><path d="M47.9 65.4L23.2 86.7c-.8.7-.9 2-.2 2.8.7.8 2 .9 2.8.2L50.9 68l-3-2.6zM80 65.5l-3 2.7 24.8 21.7c.8.7 2.1.6 2.8-.2.7-.8.6-2.1-.2-2.8L80 65.5zM104.5 38.7c-.7-.8-2-.9-2.8-.2L64 71.4l-38.2-33c-.8-.7-2.1-.6-2.8.2-.7.8-.6 2.1.2 2.8l39.5 34.1c.4.3.8.5 1.3.5s.9-.2 1.3-.5l39-34.1c.8-.6.9-1.9.2-2.7z" fill="#b1b1b1"/></svg>