<svg height="32" viewBox="0 0 32 32" width="32" xmlns="http://www.w3.org/2000/svg"><path d="M15.127 18.627c-.128 0-.256-.05-.354-.146l-2.765-2.765c-.195-.195-.195-.512 0-.707s.512-.195.707 0l2.42 2.42 4.12-3.926c.2-.19.515-.184.707.017.19.2.183.515-.018.706L15.47 18.49c-.095.09-.22.137-.343.137z"/><path d="M28.11 32.04c-2.162 0-3.92-1.754-3.92-3.91 0-.74.205-1.45.598-2.074l-3.615-3.615c-1.467 1.184-3.292 1.83-5.193 1.83-1.893 0-3.708-.64-5.164-1.81l-3.598 3.6c.384.624.592 1.345.592 2.07 0 2.156-1.754 3.91-3.91 3.91-2.162 0-3.92-1.754-3.92-3.91 0-2.16 1.758-3.92 3.92-3.92.277 0 .554.03.827.086l4.12-4.12C8.1 18.91 7.71 17.475 7.71 16c0-1.487.39-2.923 1.134-4.178L4.727 7.704c-.273.057-.55.086-.827.086-2.162 0-3.92-1.754-3.92-3.91 0-2.162 1.758-3.92 3.92-3.92 2.156 0 3.91 1.758 3.91 3.92 0 .728-.208 1.446-.59 2.063l3.587 3.596c1.46-1.177 3.28-1.82 5.173-1.82 1.91 0 3.74.65 5.204 1.838l3.604-3.612c-.388-.616-.598-1.334-.598-2.066 0-2.162 1.76-3.92 3.92-3.92 2.156 0 3.91 1.758 3.91 3.92 0 2.433-2.293 4.336-4.745 3.823l-4.14 4.14C23.87 13.1 24.26 14.528 24.26 16c0 1.48-.388 2.91-1.125 4.157l4.14 4.14c2.453-.513 4.745 1.396 4.745 3.833 0 2.156-1.754 3.91-3.91 3.91zM21.2 21.26c.127 0 .255.05.353.146l4.24 4.24c.18.18.196.466.038.665-.42.528-.64 1.157-.64 1.82 0 1.603 1.31 2.91 2.92 2.91 1.603 0 2.91-1.307 2.91-2.91 0-1.894-1.844-3.338-3.767-2.8-.17.05-.36 0-.488-.128l-4.62-4.62c-.167-.168-.193-.432-.062-.63.77-1.163 1.177-2.53 1.177-3.953 0-1.415-.407-2.783-1.178-3.957-.13-.198-.104-.46.064-.628l4.62-4.62c.126-.127.317-.176.487-.127 1.927.54 3.766-.903 3.766-2.79 0-1.61-1.307-2.92-2.91-2.92-1.61 0-2.92 1.31-2.92 2.92 0 .656.226 1.297.638 1.807.16.2.146.487-.035.667l-4.23 4.24c-.188.19-.493.197-.69.016-1.333-1.22-3.07-1.89-4.892-1.89-1.803 0-3.53.665-4.864 1.87-.198.18-.5.172-.69-.017l-4.21-4.22c-.178-.18-.194-.464-.037-.663.405-.512.63-1.154.63-1.807C6.81 2.27 5.504.96 3.9.96 2.29.96.98 2.27.98 3.88c0 1.604 1.31 2.91 2.92 2.91.283 0 .566-.04.84-.12.176-.052.364-.002.494.127l4.6 4.6c.168.168.195.432.063.63C9.12 13.197 8.71 14.57 8.71 16c0 1.415.41 2.79 1.187 3.976.13.198.103.46-.064.628l-4.6 4.6c-.128.128-.316.176-.493.127-.275-.08-.558-.12-.84-.12-1.61 0-2.92 1.31-2.92 2.92 0 1.605 1.31 2.91 2.92 2.91 1.603 0 2.91-1.305 2.91-2.91 0-.66-.22-1.29-.636-1.82-.155-.2-.138-.483.04-.662l4.22-4.22c.19-.19.492-.195.69-.018 1.326 1.2 3.05 1.86 4.855 1.86 1.81 0 3.545-.668 4.882-1.88.097-.087.217-.13.337-.13z"/><path d="M5.216 28.507H2.56c-.207 0-.375-.168-.375-.375s.168-.375.375-.375h2.656c.207 0 .375.168.375.375s-.167.375-.374.375zM3.682 27.377H2.56c-.207 0-.375-.168-.375-.375s.168-.375.375-.375h1.122c.207 0 .375.168.375.375s-.168.375-.375.375zM5.216 29.653H2.56c-.207 0-.375-.168-.375-.375s.168-.375.375-.375h2.656c.207 0 .375.168.375.375s-.167.375-.374.375zM29.438 28.502h-2.656c-.207 0-.375-.168-.375-.375s.168-.375.375-.375h2.656c.207 0 .375.168.375.375s-.168.375-.375.375zM27.902 27.37h-1.12c-.208 0-.376-.167-.376-.374s.168-.375.375-.375h1.122c.207 0 .375.17.375.376s-.168.375-.375.375zM29.438 29.648h-2.656c-.207 0-.375-.168-.375-.375s.168-.375.375-.375h2.656c.207 0 .375.168.375.375s-.168.375-.375.375zM5.207 4.24H2.55c-.207 0-.375-.167-.375-.374s.168-.375.375-.375h2.656c.207 0 .375.17.375.376s-.166.375-.373.375zM3.672 3.11H2.55c-.207 0-.375-.167-.375-.374s.168-.375.375-.375h1.122c.207 0 .375.17.375.376s-.168.375-.375.375zM5.207 5.388H2.55c-.207 0-.375-.168-.375-.375s.168-.375.375-.375h2.656c.207 0 .375.168.375.375s-.166.375-.373.375zM29.436 4.24H26.78c-.207 0-.375-.167-.375-.374s.168-.375.375-.375h2.656c.207 0 .375.17.375.376s-.167.375-.374.375zM27.902 3.11H26.78c-.208 0-.376-.167-.376-.374s.168-.375.375-.375H27.9c.207 0 .375.17.375.376s-.168.375-.375.375zM29.436 5.388H26.78c-.207 0-.375-.168-.375-.375s.168-.375.375-.375h2.656c.207 0 .375.168.375.375s-.167.375-.374.375z"/></svg>