<svg height="32" viewBox="0 0 32 32" width="32" xmlns="http://www.w3.org/2000/svg"><path d="M19.247 32.016c-.09 0-.183-.023-.264-.074-.208-.13-.292-.39-.198-.617l2.133-5.137h-1.51c-.167 0-.323-.084-.416-.223s-.11-.314-.045-.47l.782-1.87c.105-.256.4-.375.652-.27.255.107.375.4.27.654l-.493 1.177h1.507c.167 0 .323.084.416.223s.11.314.046.47l-1.25 3.007 2.51-2.873 1.298-1.566h-2.14c-.167 0-.323-.084-.416-.225s-.108-.316-.043-.47l2.077-4.9c.106-.253.397-.372.654-.267.256.107.375.4.27.654l-1.785 4.207h2.445c.193 0 .37.11.452.287.083.176.057.383-.067.53l-1.982 2.396-4.528 5.186c-.1.11-.238.17-.378.17zM5.125 21.197C2.3 21.197 0 18.897 0 16.072s2.3-5.125 5.125-5.125c.883 0 1.532.223 1.986.683.805.814.79 2.155.77 3.708l-.005.735.006.735c.02 1.553.036 2.893-.77 3.707-.453.458-1.102.682-1.985.682zm0-9.25C2.85 11.947 1 13.797 1 16.072c0 2.274 1.85 4.125 4.125 4.125.602 0 1.02-.127 1.275-.387.51-.516.497-1.664.48-2.992l-.005-.747.006-.746c.017-1.328.03-2.476-.48-2.992-.256-.26-.673-.385-1.275-.385z"/><path d="M26.74 11.634c-.277 0-.5-.224-.5-.5 0-5.597-4.555-10.15-10.15-10.15-5.598 0-10.15 4.553-10.15 10.15 0 .276-.225.5-.5.5s-.5-.224-.5-.5c0-6.148 5-11.15 11.15-11.15s11.15 5.002 11.15 11.15c0 .277-.224.5-.5.5z"/><path d="M26.875 21.197c-.883 0-1.532-.225-1.986-.684-.806-.814-.79-2.154-.77-3.707l.005-.735-.006-.734c-.02-1.553-.036-2.894.77-3.708.453-.46 1.103-.683 1.985-.683 2.826 0 5.125 2.3 5.125 5.125 0 2.828-2.3 5.127-5.125 5.127zm0-9.25c-.602 0-1.02.126-1.275.386-.51.517-.496 1.664-.48 2.992l.006.747-.006.747c-.016 1.327-.03 2.475.48 2.99.257.26.674.388 1.275.388 2.274 0 4.125-1.852 4.125-4.125 0-2.276-1.85-4.126-4.125-4.126zM4.25 18.76c-.18 0-.354-.098-.443-.268-.153-.293-.92-1.787-.932-2.474-.013-.743.768-2.4.925-2.726.12-.248.418-.352.667-.233.25.12.353.417.233.666-.4.834-.83 1.94-.825 2.274.005.3.43 1.285.818 2.027.128.244.034.547-.21.674-.075.04-.154.06-.233.06z"/><path d="M27.312 18.76c-.08 0-.158-.02-.232-.06-.244-.126-.34-.43-.21-.673.39-.742.812-1.728.817-2.027.006-.335-.424-1.44-.825-2.274-.12-.25-.016-.548.233-.667.247-.12.548-.017.667.232.157.325.938 1.983.925 2.726-.013.688-.778 2.18-.933 2.474-.088.17-.262.268-.442.268z"/></svg>