<svg height="32" viewBox="0 0 32 32" width="32" xmlns="http://www.w3.org/2000/svg"><path d="M16.016 32C7.2 32 .03 24.83.03 16.016S7.2.03 16.016.03C24.83.03 32 7.203 32 16.017c0 3.925-2.09 8.18-3.492 10.083-.087.117-.223.19-.37.2-.162.01-.29-.045-.392-.15l-.752-.78-7.053-7.05c-.194-.196-.194-.514 0-.71l1.283-1.282-7.127-1.91 1.91 7.128 1.365-1.365c.19-.187.52-.187.708 0l7.72 7.717c.106.105.16.253.146.402-.015.147-.095.282-.22.366-1.84 1.24-5.958 3.334-9.708 3.334zm0-30.97C7.752 1.03 1.03 7.754 1.03 16.017 1.03 24.278 7.752 31 16.016 31c3.197 0 6.714-1.65 8.636-2.832l-6.927-6.926-1.623 1.625c-.126.126-.31.173-.483.13-.173-.047-.308-.182-.355-.354l-2.36-8.803c-.045-.172.004-.356.13-.483.125-.126.31-.176.483-.13l8.8 2.36c.173.045.308.18.355.353.046.172-.004.356-.13.483l-1.54 1.542 7.04 7.053C29.34 23.05 31 19.396 31 16.016 31 7.753 24.278 1.03 16.016 1.03z"/><path d="M16.016 28.082c-6.654 0-12.068-5.413-12.068-12.067 0-6.653 5.414-12.066 12.068-12.066 6.653 0 12.066 5.412 12.066 12.065 0 2.617-.824 5.106-2.382 7.2-.166.223-.48.267-.7.103-.222-.165-.268-.48-.103-.7 1.43-1.92 2.185-4.202 2.185-6.602 0-6.102-4.965-11.066-11.066-11.066-6.103 0-11.068 4.964-11.068 11.066s4.965 11.067 11.068 11.067c2.217 0 4.356-.653 6.188-1.89.226-.154.54-.095.693.136.155.228.095.538-.135.692-1.996 1.347-4.33 2.06-6.746 2.06z"/><path d="M16.016 24.332c-4.586 0-8.318-3.73-8.318-8.317 0-4.585 3.73-8.316 8.318-8.316 4.586 0 8.316 3.73 8.316 8.315 0 1.584-.447 3.124-1.293 4.453-.15.233-.46.3-.69.153-.233-.147-.303-.456-.154-.69.744-1.167 1.137-2.52 1.137-3.915 0-4.034-3.282-7.316-7.316-7.316-4.035 0-7.318 3.28-7.318 7.315s3.282 7.317 7.317 7.317c1.222 0 2.43-.307 3.495-.888.242-.133.546-.044.678.2.133.24.043.545-.2.677-1.212.662-2.586 1.012-3.974 1.012z"/></svg>