<svg xmlns="http://www.w3.org/2000/svg" viewBox="0 0 32.001 32.001"><g fill="#fff"><path d="M20 0C13.373 0 8 5.373 8 12c0 2.026.507 3.933 1.395 5.608L1.052 25.95l.007.006c-.653.64-1.06 1.53-1.06 2.516 0 1.95 1.58 3.53 3.53 3.53.985 0 1.874-.407 2.515-1.06l-.002-.002 8.34-8.34C16.06 23.49 17.97 24 20 24c6.627 0 12-5.373 12-12S26.628 0 20 0zM4.796 29.692c-.322.334-.768.543-1.266.543-.975 0-1.765-.79-1.765-1.764 0-.497.21-.942.543-1.265l-.01-.008 8.067-8.066c.705.952 1.545 1.792 2.494 2.5L4.795 29.69zM20 22.002c-5.522 0-10-4.48-10-10 0-5.523 4.478-10 10-10 5.52 0 10 4.477 10 10 0 5.52-4.48 10-10 10z"/><path d="M20 5c-3.867 0-7 3.134-7 7 0 .276.224.5.5.5s.5-.224.5-.5c0-3.313 2.686-6 6-6 .275 0 .5-.224.5-.5S20.275 5 20 5z"/></g></svg>