<?xml version="1.0" encoding="UTF-8"?>
<svg width="467px" height="140px" viewBox="0 0 467 140" version="1.1" xmlns="http://www.w3.org/2000/svg" xmlns:xlink="http://www.w3.org/1999/xlink">
    <!-- Generator: Sketch 42 (36781) - http://www.bohemiancoding.com/sketch -->
    <title>Group 2</title>
    <desc>Created with Sketch.</desc>
    <defs></defs>
    <g id="Page-1" stroke="none" stroke-width="1" fill="none" fill-rule="evenodd">
        <g id="Logo-Option-1" transform="translate(-137.000000, -69.000000)">
            <g id="Group-2" transform="translate(137.000000, 69.000000)">
                <path d="M45.2341499,45.3307876 C45.2199835,44.91933 45.2515933,44.502459 45.3327307,44.0850432 C45.9869705,40.7192716 49.6136298,38.592633 53.4331011,39.335063 C57.2525724,40.077493 59.8184995,43.4078485 59.1642598,46.7736201 C59.0831224,47.1910358 58.9562679,47.5893932 58.7889983,47.9655832 C58.6889356,45.0593123 56.3050474,42.4231259 52.9592588,41.7727705 C49.6134701,41.122415 46.4156347,42.6736242 45.2341499,45.3307876 Z M27.9014091,107.822173 C29.1850243,104.443034 34.7690167,90.4518165 41.7470703,83.4541016 C49.71875,75.4599609 59.3007813,67.5488281 74.3144531,64.2285156 C89.328125,60.9082031 98.5951378,55.3306605 101.123047,48.59375 C103.650956,41.8568395 97.125,48.2558594 82.5820313,42.1953125 C68.0390625,36.1347656 67.2109375,16.3300781 65.2050781,14.671875 C63.1992188,13.0136719 55.2207031,24.9726562 55.2207031,24.9726562 C55.2207031,24.9726562 51.6972656,12.0136719 49.71875,12.0136719 C47.7402344,12.0136719 42.5146484,14.3974609 25.5429688,32.8896484 C10.5783482,49.1949626 8.83673456,71.9356353 8.63409467,77.0861938 C7.57758345,74.9492462 6.66117291,73.0478539 5.98374166,71.6265837 C2.15611636,64.9432368 0,57.3883488 0,49.3893204 C0,22.1123519 25.072054,0 56,0 C86.927946,0 112,22.1123519 112,49.3893204 C112,56.2266479 110.424674,62.7394724 107.576669,68.6608732 L107.614013,68.6878204 C107.614013,68.6878204 107.491694,68.9016146 107.266818,69.2927376 C106.402429,71.0220665 105.428848,72.6993944 104.35378,74.3179269 C100.819415,80.3710634 95.2285734,89.7919976 91.8200678,94.7591095 C86.540771,102.452469 63.2265625,136.778641 63.2265625,136.778641 L63.2138743,136.767639 C61.6151963,138.883788 59.2691855,140 56.4244328,140 C53.1461994,140 50.217895,138.016749 48.3936241,134.827415 C44.5969656,129.863028 35.2919629,117.674935 27.9014091,107.822173 Z" id="Combined-Shape-Copy" fill="#CA4E34"></path>
                <g id="Group-Copy" transform="translate(123.000000, 12.000000)">
                    <path d="M32.39,30.258 L36.736,21.648 C31.816,18.532 25.584,16.728 19.516,16.728 C9.922,16.728 2.132,21.402 2.132,30.504 C2.132,46.002 25.01,42.23 25.01,49.282 C25.01,51.66 22.632,52.726 19.434,52.726 C14.596,52.726 8.692,50.758 4.1,47.232 L0,55.76 C5.002,59.778 11.972,61.91 19.106,61.91 C29.11,61.91 37.064,57.154 37.064,48.134 C37.146,32.554 13.858,35.916 13.858,29.274 C13.858,26.978 15.99,25.994 18.942,25.994 C22.632,25.994 27.552,27.552 32.39,30.258 Z M68.768,16.892 C81.15,16.892 89.514,25.994 89.514,39.606 C89.514,52.972 81.396,61.91 69.014,61.91 C62.864,61.91 58.026,59.45 54.828,55.022 L54.828,77.326 L42.2,77.326 L42.2,17.302 L54.828,17.302 L54.828,23.78 C57.944,19.352 62.782,16.892 68.768,16.892 Z M65.816,51.414 C72.294,51.414 76.722,46.412 76.722,39.196 C76.722,32.144 72.294,27.06 65.816,27.06 C59.338,27.06 54.828,32.062 54.828,39.196 C54.828,46.494 59.338,51.414 65.816,51.414 Z M132.124,61.418 L119.742,61.418 L119.742,56.252 C116.79,59.942 112.034,61.992 105.884,61.992 C96.4539999,61.992 90.7139999,56.252 90.7139999,48.216 C90.7139999,39.934 96.6999999,35.014 107.524,34.932 L119.66,34.932 L119.66,34.112 C119.66,29.438 116.544,26.732 110.476,26.732 C106.54,26.732 101.948,28.044 97.3559999,30.586 L93.4199999,21.894 C99.9799999,18.614 105.638,16.81 113.346,16.81 C125.154,16.81 131.96,22.714 132.042,32.636 L132.124,61.418 Z M109.41,52.972 C114.74,52.972 118.922,50.102 119.66,46.33 L119.66,42.394 L109.738,42.394 C104.9,42.394 102.522,43.87 102.522,47.396 C102.522,50.758 105.146,52.972 109.41,52.972 Z M168.748,32.308 C166.37,29.356 163.008,27.552 158.662,27.634 C152.512,27.634 148.166,32.39 148.166,39.442 C148.166,46.576 152.512,51.414 158.662,51.414 C163.172,51.414 166.698,49.692 168.912,46.248 L177.604,52.152 C173.914,58.302 167.026,61.91 158.006,61.91 C144.64,61.91 135.538,52.89 135.538,39.524 C135.538,25.994 144.64,16.892 158.17,16.892 C166.616,16.892 173.34,20.254 177.276,26.158 L168.748,32.308 Z M199.304,16.892 C214.802,16.892 222.018,27.142 220.952,43.214 L189.3,43.214 C190.776,48.79 195.04,52.07 200.698,52.07 C204.88,52.07 208.816,50.43 211.85,47.396 L218.492,54.12 C214.064,59.04 207.586,61.91 199.632,61.91 C185.528,61.91 176.59,52.89 176.59,39.524 C176.59,25.912 185.856,16.892 199.304,16.892 Z M189.054,35.752 L209.144,35.752 C208.98,29.93 205.208,26.158 199.386,26.158 C193.81,26.158 190.038,29.93 189.054,35.752 Z" id="spacefox-copy" fill="#000000"></path>
                    <polygon id="Path" fill="#CA4E34" points="297.584 17.302 312.016 17.302 320.134 30.668 328.744 17.302 342.52 17.302 328.498 38.786 343.504 61.418 328.99 61.418 320.134 46.986 310.458 61.418 296.518 61.418 311.77 38.868"></polygon>
                    <path d="M276.212,16.892 C290.316,16.892 299.828,25.83 299.828,39.36 C299.828,52.808 290.316,61.91 276.212,61.91 C262.026,61.91 252.514,52.808 252.514,39.36 C252.514,25.83 262.026,16.892 276.212,16.892 Z M276.212,27.388 C269.652,27.388 265.142,32.308 265.142,39.524 C265.142,46.74 269.652,51.66 276.212,51.66 C282.69,51.66 287.2,46.74 287.2,39.524 C287.2,32.308 282.69,27.388 276.212,27.388 Z" id="Combined-Shape" fill="#CA4E34"></path>
                    <path d="M246.294,10.414 C243.342,10.414 241.046,12.054 241.046,15.58 L241.046,19.27 L251.46,19.27 L251.46,28.044 L241.046,28.044 L241.046,61.418 L228.5,61.418 L228.5,28.044 L222.596,28.044 L222.596,19.27 L228.5,19.27 L228.5,15.088 C228.5,5.248 235.88,0 244.736,0 C248.836,0 253.182,1.066 256.298,3.116 L251.788,12.3 C250.148,11.07 248.098,10.414 246.294,10.414 Z" id="Path" fill="#CA4E34"></path>
                </g>
            </g>
        </g>
    </g>
</svg>